<svg preserveAspectRatio="xMidYMid meet" viewBox="118.86304909560722 1524.56 1844.9612403100775 1059.4399999999998" xmlns="http://www.w3.org/2000/svg" version="1.0" style="max-height: 500px" width="1844.9612403100775" height="1059.4399999999998">

<g stroke="none" fill="#000000" transform="translate(0.000000,2584.000000) scale(0.100000,-0.100000)">
<path d="M2126 24964 c-178 -43 -294 -171 -331 -367 -22 -118 -22 -1342 0&#10;-1449 50 -236 193 -357 444 -374 235 -17 410 68 494 239 44 91 57 165 64 385&#10;l6 202 -166 0 -165 0 -4 -202 c-3 -181 -5 -207 -23 -237 -26 -45 -79 -71 -147&#10;-73 -97 -3 -161 55 -173 155 -3 29 -5 333 -3 677 3 602 4 626 23 665 39 78&#10;157 109 239 62 71 -39 80 -69 86 -257 l5 -165 160 0 160 0 -2 150 c-1 83 -7&#10;179 -13 214 -35 203 -151 331 -342 376 -78 18 -234 18 -312 -1z"/>
<path d="M3430 24970 c-165 -29 -283 -129 -348 -296 l-27 -69 -3 -691 c-2&#10;-590 -1 -702 13 -765 53 -259 253 -395 550 -376 234 16 374 124 442 342 17 56&#10;18 109 18 755 0 749 0 744 -54 860 -31 68 -129 168 -194 198 -101 47 -266 64&#10;-397 42z m220 -322 c32 -16 51 -35 65 -63 19 -39 20 -60 20 -705 0 -634 -1&#10;-668 -19 -708 -27 -60 -74 -87 -151 -87 -72 0 -120 24 -150 75 -19 34 -20 52&#10;-23 693 -2 429 1 671 8 696 29 107 143 152 250 99z"/>
<path d="M8913 24960 c-175 -46 -289 -169 -328 -355 -22 -103 -21 -636 1 -743&#10;41 -201 148 -300 335 -310 145 -7 247 37 310 136 l30 47 -3 -255 c-3 -249 -4&#10;-256 -28 -305 -62 -123 -246 -126 -307 -5 -18 34 -23 61 -23 122 l0 78 -166 0&#10;-167 0 7 -95 c13 -181 61 -301 150 -383 101 -92 220 -128 396 -119 244 13 373&#10;103 447 313 l28 79 0 710 c0 661 -1 714 -18 770 -52 169 -169 280 -339 320&#10;-88 21 -236 18 -325 -5z m279 -325 c63 -41 70 -86 66 -398 -3 -290 -6 -303&#10;-70 -349 -27 -19 -46 -23 -103 -23 -57 0 -76 4 -103 23 -66 47 -67 55 -67 377&#10;0 253 2 294 17 321 21 39 38 53 85 70 51 19 128 9 175 -21z"/>
<path d="M13622 24969 c-130 -25 -257 -121 -308 -233 -52 -114 -54 -137 -54&#10;-866 0 -563 3 -685 15 -738 60 -252 245 -376 535 -359 248 15 395 138 445 375&#10;12 59 15 151 15 463 l0 389 -240 0 -240 0 0 -155 0 -155 81 0 81 0 -4 -242&#10;c-4 -261 -6 -275 -60 -325 -48 -45 -165 -48 -226 -5 -63 45 -62 34 -62 760 0&#10;619 2 659 19 698 39 87 149 120 240 72 73 -38 85 -72 89 -265 l4 -161 159 -2&#10;159 -1 0 158 c0 100 -6 183 -15 227 -41 195 -157 318 -337 361 -68 16 -226 18&#10;-296 4z"/>
<path d="M18340 24962 c-218 -57 -330 -233 -331 -518 0 -134 18 -220 66 -316&#10;59 -117 91 -155 299 -363 213 -212 256 -268 283 -372 19 -73 13 -178 -14 -229&#10;-54 -105 -242 -104 -297 2 -17 32 -22 62 -25 162 l-3 122 -160 0 -160 0 5&#10;-152 c4 -122 9 -166 27 -218 52 -154 149 -247 305 -291 31 -9 98 -14 175 -14&#10;104 0 136 4 192 23 206 71 308 241 308 512 0 124 -21 217 -70 316 -56 114&#10;-124 196 -303 367 -238 225 -294 323 -285 494 5 89 17 117 71 157 41 30 124&#10;33 176 6 65 -33 87 -97 91 -272 0 -5 73 -8 161 -8 l162 0 -7 108 c-13 214 -73&#10;344 -200 428 -104 69 -317 95 -466 56z"/>
<path d="M22786 24965 c-135 -34 -241 -120 -298 -240 -55 -119 -57 -146 -54&#10;-880 2 -642 3 -673 22 -736 54 -175 159 -276 334 -320 71 -18 102 -21 190 -16&#10;58 4 123 11 145 17 120 34 227 120 278 223 60 123 60 126 64 797 3 410 1 646&#10;-7 709 -27 231 -123 367 -305 432 -79 28 -282 36 -369 14z m261 -321 c15 -11&#10;36 -33 47 -48 21 -27 21 -39 24 -694 2 -490 0 -678 -9 -710 -40 -144 -270&#10;-147 -321 -4 -10 29 -13 177 -13 692 0 646 0 656 21 701 29 62 85 92 167 86&#10;37 -2 67 -10 84 -23z"/>
<path d="M4372 23878 l3 -1083 445 0 445 0 3 153 c2 118 0 152 -10 153 -7 0&#10;-131 0 -275 -1 l-263 -1 -2 908 c-1 499 -2 917 -2 928 -1 19 -9 20 -174 23&#10;l-172 2 2 -1082z"/>
<path d="M5242 24804 l3 -156 164 0 c90 0 170 -2 177 -5 12 -4 14 -163 14&#10;-929 l0 -924 168 2 167 3 3 921 c2 818 4 923 17 928 9 3 88 5 175 3 136 -2&#10;160 0 161 13 1 12 0 158 -1 278 l0 22 -525 0 -526 0 3 -156z"/>
<path d="M7870 24914 c-11 -26 -20 -49 -20 -51 0 -2 -14 -25 -31 -50 -52 -76&#10;-136 -116 -259 -126 l-45 -4 -3 -121 -3 -122 131 0 130 0 0 -819 c0 -772 1&#10;-820 18 -825 22 -7 300 -6 318 1 12 4 14 169 14 1084 l0 1079 -115 0 -114 0&#10;-21 -46z"/>
<path d="M10457 24891 c-48 -120 -129 -181 -263 -199 -38 -5 -72 -8 -76 -5 -5&#10;2 -8 -52 -8 -121 l0 -126 130 0 130 0 2 -822 3 -823 160 -1 c88 -1 165 1 172&#10;3 11 4 13 208 11 1082 l-3 1076 -115 3 -115 2 -28 -69z"/>
<path d="M11755 24893 c-56 -129 -142 -192 -272 -201 l-73 -5 0 -123 0 -124&#10;130 0 130 0 0 -825 0 -825 168 2 167 3 3 1083 2 1082 -113 0 -113 0 -29 -67z"/>
<path d="M14552 24058 c3 -843 5 -907 22 -958 75 -227 225 -330 478 -330 117&#10;0 183 13 265 51 73 35 150 114 188 195 55 115 55 116 55 1067 l0 877 -160 0&#10;-159 0 -3 -882 c-3 -866 -3 -884 -23 -918 -60 -103 -239 -103 -300 0 -20 34&#10;-20 50 -23 918 l-3 882 -170 0 -170 0 3 -902z"/>
<path d="M15869 24953 c-2 -11 -2 35 0 -1114 l1 -1046 148 1 147 1 5 775 5&#10;775 204 -755 c112 -415 207 -765 212 -777 8 -22 12 -22 169 -22 89 0 168 3&#10;176 6 12 4 14 155 14 1062 0 581 -3 1066 -7 1079 -5 21 -9 22 -154 22 l-149 0&#10;-2 -637 -3 -637 -38 145 c-21 79 -97 365 -170 634 l-133 490 -212 3 c-117 1&#10;-212 -1 -213 -5z"/>
<path d="M19280 23875 l0 -1085 168 2 167 3 3 1083 2 1082 -170 0 -170 0 0&#10;-1085z"/>
<path d="M19942 23878 l3 -1083 445 0 445 0 3 155 2 155 -270 -3 c-216 -3&#10;-271 -1 -275 10 -3 7 -6 425 -7 928 l-3 915 -173 3 -172 2 2 -1082z"/>
<path d="M21069 24953 c-2 -11 -2 35 0 -1115 l1 -1046 168 1 167 2 3 463 2&#10;462 190 0 190 0 2 -462 3 -463 170 0 170 0 3 1083 2 1082 -175 0 -175 0 0&#10;-465 0 -465 -190 0 -190 0 0 465 0 465 -170 0 c-93 0 -170 -3 -171 -7z"/>
<path d="M23742 24068 c3 -809 5 -898 21 -951 40 -135 100 -222 192 -277 81&#10;-48 169 -69 294 -69 265 -2 418 106 488 344 16 55 18 136 21 953 l3 893 -163&#10;-3 -163 -3 -5 -885 c-4 -673 -8 -890 -17 -906 -66 -115 -259 -107 -309 12 -11&#10;27 -14 195 -14 893 0 474 -3 868 -6 876 -5 13 -34 15 -176 15 l-169 0 3 -892z"/>
<path d="M25062 23878 l3 -1083 460 0 460 0 0 154 0 154 -281 -2 c-159 -1&#10;-284 1 -287 7 -5 6 -11 530 -7 610 0 9 53 12 230 12 l230 0 0 160 0 160 -232&#10;0 -233 0 3 287 c1 159 4 294 7 301 3 9 67 12 290 10 l285 -3 0 158 0 157 -465&#10;0 -465 0 2 -1082z"/>
<path d="M26180 24803 l0 -158 172 0 173 0 5 -925 5 -925 165 0 165 0 5 925 5&#10;925 178 3 177 2 0 155 0 155 -525 0 -525 0 0 -157z"/>
<path d="M27350 24805 l0 -155 178 -2 177 -3 5 -927 5 -926 165 1 165 2 5 925&#10;5 925 173 3 172 2 0 155 0 155 -525 0 -525 0 0 -155z"/>
<path d="M28626 24951 c-3 -4 -4 -491 -3 -1082 l2 -1074 460 0 460 0 3 155 2&#10;155 -268 -2 c-148 -1 -278 1 -290 4 l-22 5 2 311 3 310 228 -1 227 -2 0 160 0&#10;160 -230 0 -230 0 2 298 3 297 287 0 288 0 0 158 0 157 -459 0 c-253 0 -462&#10;-4 -465 -9z"/>
<path d="M30626 24952 c-3 -5 -4 -492 -3 -1083 l2 -1074 315 0 c343 0 390 6&#10;496 56 67 31 149 111 182 175 46 89 56 157 56 369 0 155 -4 215 -17 268 -32&#10;129 -93 214 -187 262 l-44 22 29 16 c42 22 109 94 135 146 34 69 50 164 50&#10;311 0 159 -16 247 -61 330 -59 111 -155 173 -303 195 -94 14 -642 20 -650 7z&#10;m594 -328 c55 -32 73 -81 78 -210 8 -200 -12 -265 -93 -311 -34 -19 -55 -23&#10;-137 -23 l-98 0 0 278 c0 153 2 281 6 284 3 3 52 5 108 3 81 -1 111 -6 136&#10;-21z m21 -885 c27 -15 50 -39 63 -64 19 -37 21 -57 21 -257 0 -205 -1 -218&#10;-21 -245 -38 -51 -72 -63 -189 -68 -58 -3 -116 -3 -128 0 l-22 6 3 331 3 331&#10;113 -5 c95 -4 121 -9 157 -29z"/>
<path d="M31940 24090 c0 -948 1 -959 57 -1077 34 -73 113 -157 176 -187 152&#10;-74 375 -76 534 -6 59 26 154 123 185 190 58 122 58 130 58 1080 l0 870 -160&#10;0 -160 0 -2 -877 c-3 -855 -4 -879 -23 -918 -25 -49 -68 -75 -137 -81 -67 -7&#10;-133 24 -163 76 -20 34 -20 52 -23 918 l-2 882 -170 0 -170 0 0 -870z"/>
<path d="M33257 24954 c-4 -4 -7 -490 -7 -1080 l0 -1074 23 -5 c13 -4 82 -5&#10;153 -3 l129 3 5 770 c3 424 6 767 8 764 1 -4 94 -348 207 -765 113 -417 211&#10;-762 218 -766 6 -4 86 -7 177 -5 l165 2 0 1080 0 1080 -152 3 -153 3 -2 -637&#10;-3 -636 -171 634 -170 633 -210 3 c-116 1 -213 -1 -217 -4z"/>
<path d="M34652 23879 l3 -1084 320 0 c271 0 330 3 382 17 177 49 270 144 320&#10;328 16 59 18 125 18 740 0 623 -1 680 -18 739 -48 170 -141 268 -295 314 -59&#10;18 -105 20 -400 24 l-332 5 2 -1083z m574 761 c27 -6 60 -21 73 -33 52 -48 52&#10;-39 51 -732 0 -428 -4 -654 -11 -672 -27 -72 -72 -93 -209 -99 -60 -2 -115 -2&#10;-122 1 -11 4 -13 147 -10 763 1 416 4 762 6 768 6 15 159 18 222 4z"/>
<path d="M35992 23878 l3 -1083 445 0 445 0 3 153 3 152 -248 1 c-137 1 -263&#10;2 -280 2 l-33 1 0 928 0 928 -170 0 -170 0 2 -1082z"/>
<path d="M37110 23875 l0 -1085 453 0 c248 1 458 4 465 9 9 6 12 44 10 155&#10;l-3 147 -278 0 c-153 0 -285 3 -293 6 -12 4 -14 57 -14 314 0 287 1 309 18&#10;310 9 0 114 1 232 2 l215 2 3 158 3 157 -236 0 -235 0 2 298 3 297 290 2 290&#10;2 3 155 3 156 -466 0 -465 0 0 -1085z"/>
<path d="M25673 21330 c-40 -24 -53 -48 -53 -99 0 -37 -3 -41 -32 -49 -29 -7&#10;-38 -20 -84 -114 l-52 -105 -54 -6 c-112 -13 -263 -110 -373 -240 -28 -32 -60&#10;-63 -73 -68 -67 -26 -320 0 -410 43 -23 11 -48 18 -56 15 -7 -3 -26 3 -41 13&#10;-22 14 -34 16 -54 9 -21 -8 -28 -6 -42 13 -16 20 -20 21 -43 9 -23 -13 -28&#10;-12 -44 3 -17 15 -20 15 -32 1 -7 -9 -21 -13 -31 -10 -9 3 -20 1 -24 -5 -3 -5&#10;-18 -7 -32 -4 -22 6 -25 4 -20 -10 5 -13 0 -16 -24 -16 -23 0 -29 -4 -27 -17&#10;2 -14 -3 -17 -19 -15 -18 3 -23 -2 -23 -18 0 -12 -9 -24 -22 -29 -13 -5 -23&#10;-14 -24 -22 0 -8 -2 -27 -2 -42 -1 -16 -6 -26 -10 -23 -4 2 -14 1 -22 -4 -13&#10;-8 -13 -12 2 -26 16 -16 16 -18 0 -30 -13 -9 -14 -15 -4 -27 10 -11 9 -17 -3&#10;-27 -14 -11 -14 -15 -1 -29 9 -10 13 -26 10 -38 -4 -15 0 -23 15 -28 25 -8 27&#10;-18 6 -35 -17 -14 -9 -34 11 -26 9 3 14 -2 14 -14 0 -13 7 -20 19 -20 13 0 21&#10;-9 26 -30 7 -31 23 -38 42 -19 7 7 15 2 27 -17 15 -22 23 -25 52 -21 28 5 34&#10;3 34 -12 0 -26 10 -32 33 -19 16 8 23 7 32 -6 14 -19 31 -21 38 -3 3 7 6 5 6&#10;-6 1 -14 8 -17 35 -15 19 1 40 -3 48 -9 7 -6 50 -25 94 -42 78 -30 199 -106&#10;236 -148 15 -16 18 -46 20 -219 l3 -199 840 4 c462 2 841 4 842 5 1 1 3 255 3&#10;564 1 309 5 562 10 562 4 0 16 -17 26 -37 18 -35 19 -78 25 -568 3 -291 6&#10;-531 7 -533 1 -2 28 -2 60 0 l57 3 5 563 c3 320 9 563 14 565 5 1 18 -16 30&#10;-38 20 -39 21 -54 24 -568 l3 -528 62 3 62 3 5 569 c4 422 8 565 16 555 39&#10;-48 39 -50 44 -594 l5 -530 63 -3 62 -3 0 577 c0 522 1 575 16 563 45 -37 45&#10;-44 52 -603 l7 -531 58 -3 57 -3 0 368 c1 202 0 457 0 565 0 108 3 199 8 202&#10;10 6 33 -17 51 -52 9 -17 12 -160 12 -540 0 -284 3 -523 8 -530 5 -9 25 -12&#10;62 -10 l54 3 3 573 2 573 25 -29 c14 -17 29 -52 35 -79 5 -26 9 -268 10 -538&#10;0 -269 4 -493 9 -498 4 -4 30 -7 57 -5 l49 3 3 568 c1 332 6 567 11 567 5 0&#10;20 -17 33 -37 l23 -38 3 -520 c1 -286 5 -526 7 -533 3 -9 21 -12 57 -10 l53 3&#10;5 574 c5 542 6 572 22 554 26 -28 47 -84 52 -139 3 -27 5 -262 5 -521 l1 -473&#10;55 0 55 0 0 575 c0 371 3 575 10 575 5 0 22 -19 37 -42 l28 -42 3 -533 3 -533&#10;55 0 c30 0 54 1 54 3 1 1 4 256 7 567 3 311 8 567 10 570 9 9 51 -52 57 -83 3&#10;-16 6 -226 6 -467 0 -240 3 -472 7 -514 l6 -77 3399 5 3399 4 112 64 c306 173&#10;576 264 922 309 59 7 349 13 838 16 l748 5 10 25 c14 38 13 873 -2 926 -16 62&#10;-43 100 -87 125 l-40 22 -2976 0 -2976 0 0 -100 0 -100 -1085 0 -1084 0 -3 98&#10;-3 97 -1715 5 -1715 5 -41 100 c-29 72 -46 101 -60 104 -32 5 -41 19 -42 61&#10;-2 52 -15 76 -52 95 -40 20 -89 19 -127 -5z m-1063 -809 c124 -35 229 -67 234&#10;-72 9 -8 -71 -349 -82 -349 -3 0 -123 38 -267 85 -273 88 -329 116 -360 174&#10;-41 80 1 173 95 216 57 25 137 14 380 -54z"/>
<path d="M4577 21308 c-8 -13 -39 -68 -70 -123 -31 -55 -62 -108 -70 -119 -8&#10;-10 -59 -33 -118 -53 -232 -76 -371 -201 -537 -485 -127 -217 -229 -252 -460&#10;-159 -77 31 -116 41 -158 41 -113 0 -194 -68 -194 -163 0 -59 18 -95 69 -139&#10;49 -42 108 -63 236 -84 55 -9 125 -28 155 -42 74 -34 188 -149 226 -227 27&#10;-55 29 -71 32 -187 4 -132 -7 -199 -48 -279 -25 -49 -110 -140 -180 -194 -123&#10;-94 -494 -290 -644 -339 -214 -70 -520 -48 -784 58 -49 20 -93 36 -97 36 -11&#10;0 3 -64 27 -117 55 -127 175 -263 307 -348 156 -100 284 -145 497 -175 172&#10;-23 231 -37 342 -80 317 -122 566 -436 623 -785 16 -102 7 -234 -21 -310 -32&#10;-85 -68 -134 -201 -272 -134 -138 -201 -230 -265 -356 -35 -68 -94 -222 -94&#10;-243 0 -2 65 -4 145 -4 129 0 145 -2 145 -17 0 -9 -3 -13 -6 -10 -27 27 -52&#10;-39 -388 -1051 -617 -1858 -768 -2324 -773 -2384 -4 -42 -1 -71 12 -104 24&#10;-64 106 -143 190 -185 l70 -34 428 -3 c429 -3 429 -3 448 -25 10 -12 18 -38&#10;19 -58 0 -51 31 -86 92 -104 45 -13 212 -15 1309 -15 l1257 0 16 -25 c28 -42&#10;67 -46 424 -43 l334 3 24 28 c35 41 33 99 -5 138 -28 28 -33 29 -120 29 -59 0&#10;-91 4 -91 11 0 11 634 2977 711 3324 57 259 86 359 126 439 126 251 333 425&#10;599 503 53 16 145 18 984 23 l925 6 95 26 c339 92 582 322 684 647 27 84 37&#10;161 55 411 15 194 70 342 179 473 98 119 249 213 417 260 l80 22 1570 5 c864&#10;3 1571 6 1572 8 7 10 23 77 28 123 l7 56 96 7 c54 3 819 6 1702 6 l1606 0 44&#10;23 c30 15 50 35 64 62 20 38 21 60 26 515 l5 475 70 5 70 5 0 490 0 490 -77 0&#10;c-44 0 -78 4 -79 10 -1 6 2 47 5 92 12 139 -13 183 -99 183 -43 0 -49 11 -65&#10;120 -7 47 -17 95 -21 108 l-9 22 -279 0 c-211 0 -281 -3 -288 -12 -6 -7 -25&#10;-57 -43 -111 l-32 -97 -771 5 c-1631 11 -4417 15 -4417 6 0 -5 -296 -12 -674&#10;-16 l-675 -7 -5 -27 c-3 -14 -8 -48 -11 -76 -4 -27 -9 -58 -12 -67 -4 -17 -63&#10;-18 -1053 -18 l-1048 0 -6 23 c-3 12 -6 55 -6 95 l0 72 -1842 0 c-2107 0&#10;-1880 -11 -1981 100 -31 35 -74 96 -94 136 l-38 74 -92 0 c-85 0 -94 -2 -106&#10;-22z m5326 -2044 c61 -42 89 -103 85 -180 -5 -82 -38 -132 -109 -168 -57 -28&#10;-93 -32 -151 -16 -99 28 -166 148 -138 249 35 132 201 193 313 115z m-5764&#10;-191 c114 -86 79 -252 -58 -270 -104 -14 -192 81 -167 181 8 34 54 86 91 102&#10;38 18 100 11 134 -13z m709 -320 c-29 -106 -683 -2272 -685 -2269 -8 7 316&#10;1127 528 1831 129 426 139 455 151 455 6 0 8 -8 6 -17z m1063 -98 c63 -22 113&#10;-66 143 -127 21 -42 35 -98 23 -98 -5 0 -423 80 -444 85 -32 8 -29 25 14 75&#10;65 75 163 99 264 65z m-2563 -45 c34 -105 93 -140 169 -101 22 11 43 17 46 14&#10;8 -7 -12 -45 -32 -60 -22 -17 -106 -16 -140 2 -61 31 -105 111 -94 169 8 41&#10;34 28 51 -24z m6592 -184 c337 -79 598 -339 671 -668 17 -77 20 -116 16 -223&#10;-6 -157 -23 -228 -88 -363 -43 -88 -62 -115 -133 -187 -68 -68 -101 -91 -177&#10;-129 -52 -26 -132 -56 -179 -68 -78 -19 -100 -20 -270 -14 -102 4 -265 11&#10;-362 14 l-177 7 -67 65 c-149 146 -270 352 -320 546 -35 133 -43 332 -20 455&#10;32 171 104 339 196 459 27 36 49 68 50 71 0 3 -62 9 -137 12 -75 4 -138 9&#10;-140 11 -2 2 -1 11 3 20 6 16 44 17 533 13 456 -3 536 -6 601 -21z m-4086 -67&#10;c124 -21 200 -39 203 -46 8 -20 -43 -80 -91 -108 -122 -71 -290 -20 -354 107&#10;-12 25 -22 55 -22 68 0 26 -19 28 264 -21z m1000 -744 c4 -10 -10 -22 -49 -40&#10;-94 -45 -137 -115 -136 -223 0 -50 6 -73 26 -108 26 -43 45 -56 138 -93 33&#10;-13 34 -26 6 -42 -54 -29 -169 52 -210 149 -41 94 -8 241 71 321 40 39 62 50&#10;111 50 24 1 39 -4 43 -14z m-2697 -1167 c-3 -8 -6 -5 -6 6 -1 11 2 17 5 13 3&#10;-3 4 -12 1 -19z m-10 -40 c-3 -8 -6 -5 -6 6 -1 11 2 17 5 13 3 -3 4 -12 1 -19z&#10;m2032 -2832 c-6 -26 -13 -45 -16 -43 -2 3 1 26 8 51 6 26 13 45 16 43 2 -3 -1&#10;-26 -8 -51z m-1490 -161 c54 -19 90 -47 118 -93 45 -73 50 -71 -202 -74 -124&#10;-2 -232 -1 -240 2 -18 7 4 72 37 107 60 65 192 92 287 58z m140 -285 c28 -17&#10;-56 -119 -128 -155 -88 -44 -206 -26 -283 43 -41 37 -82 105 -71 116 9 9 468&#10;6 482 -4z m-1646 -324 c132 -55 142 -245 15 -316 -134 -75 -295 51 -255 200&#10;28 104 140 158 240 116z"/>
<path d="M9714 19211 c-40 -25 -68 -83 -61 -128 27 -166 267 -155 267 12 0&#10;105 -116 171 -206 116z"/>
<path d="M3995 19015 c-27 -26 -34 -80 -14 -116 16 -30 66 -48 103 -38 43 12&#10;66 44 66 91 0 54 -34 88 -90 88 -30 0 -47 -6 -65 -25z"/>
<path d="M3052 12741 c-89 -56 -60 -194 44 -208 52 -7 97 17 119 64 47 99 -69&#10;202 -163 144z"/>
<path d="M36815 21153 c-44 -70 -81 -131 -83 -135 -2 -4 152 -8 343 -8 325 0&#10;346 1 341 18 -3 9 -12 60 -21 112 -8 52 -18 105 -20 118 l-5 22 -238 0 -237 0&#10;-80 -127z"/>
<path d="M37730 20303 c0 -345 -2 -371 -20 -412 -22 -48 -28 -170 -10 -217&#10;l11 -27 86 6 c49 4 90 11 94 18 16 26 41 232 46 379 5 141 -8 463 -24 575 l-6&#10;45 -88 0 -89 0 0 -367z"/>
<path d="M36092 19819 c-270 -26 -561 -115 -822 -251 -191 -99 -190 -94 -9&#10;-102 265 -11 518 -27 546 -35 15 -4 28 -12 31 -19 3 -9 -97 -12 -426 -12 -236&#10;0 -431 -2 -434 -5 -3 -3 -1 -26 3 -53 5 -26 11 -114 15 -197 6 -138 3 -200&#10;-22 -402 l-7 -53 1326 0 1326 0 16 52 c21 73 43 187 54 288 13 116 6 421 -13&#10;555 -9 61 -18 137 -20 170 -2 33 -5 63 -5 68 -1 10 -1453 6 -1559 -4z"/>
<path d="M24733 19388 c-5 -7 -15 -33 -22 -58 -45 -157 -167 -300 -329 -384&#10;-103 -54 -142 -93 -181 -176 -22 -46 -26 -69 -26 -145 0 -76 4 -99 27 -147 45&#10;-97 125 -158 208 -158 67 0 225 -106 355 -237 334 -336 475 -829 361 -1258&#10;-14 -49 -183 -517 -376 -1040 -194 -522 -538 -1455 -766 -2073 -228 -618 -419&#10;-1132 -425 -1144 -6 -11 -7 -24 -2 -28 4 -4 163 -29 353 -55 190 -25 360 -48&#10;377 -51 18 -3 37 -3 42 0 8 5 -43 164 -58 179 -4 4 -19 -10 -34 -31 -79 -120&#10;-239 -112 -314 16 -59 101 -28 207 82 278 30 19 55 39 55 43 0 13 -64 67 -110&#10;93 -22 13 -41 28 -43 33 -3 6 128 372 290 815 1077 2949 1344 3685 1704 4694&#10;110 308 207 572 214 587 20 37 39 49 30 18 -36 -119 -898 -2507 -1473 -4079&#10;-459 -1253 -724 -1980 -729 -2001 -3 -11 17 -31 60 -62 82 -58 177 -163 229&#10;-249 34 -58 117 -246 131 -297 3 -15 19 -19 83 -24 88 -7 696 -87 1809 -238&#10;935 -127 914 -124 924 -113 14 16 330 1133 826 2919 145 523 279 995 299 1050&#10;106 294 342 461 705 495 61 6 454 10 926 10 491 0 848 4 889 10 250 37 482&#10;212 606 460 82 163 109 282 116 515 8 254 29 368 94 495 95 187 273 339 465&#10;396 56 17 148 19 1392 24 732 3 1333 7 1336 10 3 3 19 33 36 67 58 115 91 296&#10;91 494 0 101 -14 287 -25 337 l-5 22 -5094 0 c-4063 0 -5095 -3 -5103 -12z&#10;m5893 -154 c67 -41 105 -104 111 -186 4 -55 1 -70 -24 -118 -105 -199 -386&#10;-168 -443 49 -27 104 36 229 140 276 58 25 157 16 216 -21z m-3492 -531 c4 -4&#10;-55 -68 -132 -143 -76 -74 -158 -161 -182 -193 -42 -56 -44 -58 -53 -35 -14&#10;37 -2 148 21 193 21 42 91 113 133 136 67 36 194 61 213 42z m138 -85 c32 -50&#10;33 -48 -181 -262 l-207 -206 -38 50 -38 50 208 204 c220 215 222 216 256 164z&#10;m77 -194 c1 -56 -25 -140 -60 -191 -58 -84 -144 -128 -251 -128 -36 0 -70 3&#10;-74 7 -4 4 15 27 42 50 96 82 296 283 311 313 15 28 17 28 24 10 4 -11 8 -38&#10;8 -61z m3206 -54 c170 -9 269 -32 380 -88 238 -120 407 -344 461 -612 21 -108&#10;15 -283 -15 -384 -85 -290 -293 -495 -586 -578 -79 -23 -88 -23 -577 -21 -309&#10;0 -530 5 -584 13 -175 23 -338 103 -464 229 -122 122 -193 250 -237 429 -25&#10;103 -23 294 6 401 65 249 214 436 430 546 114 57 121 58 381 65 387 10 632 10&#10;805 0z m-5235 -5087 c-95 -98 -177 -180 -182 -182 -15 -5 -3 90 18 153 37 108&#10;173 205 287 206 l49 0 -172 -177z m304 94 c15 -19 26 -38 26 -43 0 -5 -90 -99&#10;-200 -209 -219 -219 -211 -214 -257 -145 l-23 33 203 198 c111 109 207 198&#10;214 199 7 0 23 -15 37 -33z m84 -206 c-6 -92 -30 -152 -89 -216 -65 -71 -108&#10;-89 -206 -90 -45 0 -84 3 -87 6 -8 7 367 385 378 380 4 -2 6 -38 4 -80z"/>
<path d="M29555 18319 c-188 -31 -401 -196 -498 -385 -57 -113 -88 -221 -96&#10;-344 -16 -245 48 -424 213 -597 163 -172 322 -244 538 -242 94 0 183 11 195&#10;22 3 4 -23 37 -58 74 -374 397 -368 986 15 1400 l66 71 -31 6 c-44 8 -284 5&#10;-344 -5z"/>
<path d="M22997 19133 c-12 -11 -8 -48 18 -149 84 -331 281 -525 707 -695 224&#10;-89 317 -118 420 -129 242 -27 402 -134 538 -360 57 -96 102 -206 137 -340 34&#10;-128 43 -333 19 -435 -34 -144 -127 -286 -261 -398 l-70 -58 -162 -417 c-89&#10;-229 -162 -423 -163 -429 0 -10 37 -13 154 -13 85 0 157 -4 161 -9 3 -5 -4&#10;-16 -16 -24 -15 -11 -17 -16 -7 -20 10 -4 9 -9 -5 -20 -10 -9 -15 -21 -11 -31&#10;3 -9 1 -16 -6 -16 -7 0 -9 -8 -5 -20 4 -11 2 -20 -4 -20 -6 0 -11 -11 -11 -25&#10;0 -14 -5 -25 -11 -25 -6 0 -8 -9 -4 -20 4 -13 1 -22 -10 -26 -10 -4 -13 -13&#10;-10 -24 3 -10 1 -21 -5 -25 -5 -3 -10 -15 -10 -26 0 -10 -5 -19 -11 -19 -6 0&#10;-8 -7 -5 -15 3 -9 -1 -18 -10 -22 -10 -4 -14 -13 -10 -29 4 -15 1 -26 -10 -32&#10;-11 -6 -15 -16 -11 -26 5 -12 0 -19 -15 -25 -14 -5 -17 -10 -10 -15 18 -11 14&#10;-26 -5 -27 -10 0 -13 -3 -6 -6 9 -3 9 -10 3 -24 -6 -10 -14 -28 -20 -39 -5&#10;-10 -7 -26 -4 -35 4 -9 -1 -17 -11 -21 -12 -5 -15 -14 -10 -31 4 -16 1 -25&#10;-10 -30 -11 -4 -15 -13 -11 -28 4 -15 1 -25 -10 -29 -10 -4 -13 -13 -9 -25 3&#10;-12 0 -21 -11 -25 -9 -3 -14 -13 -11 -20 3 -8 -2 -17 -11 -21 -14 -5 -14 -7&#10;-2 -15 12 -8 12 -11 -2 -27 -8 -10 -13 -23 -11 -30 2 -6 -1 -14 -6 -18 -6 -3&#10;-11 -15 -11 -26 0 -10 -5 -19 -11 -19 -6 0 -8 -9 -4 -20 4 -13 1 -22 -10 -26&#10;-10 -4 -13 -13 -10 -24 3 -10 1 -21 -5 -25 -5 -3 -10 -17 -10 -30 0 -13 -7&#10;-30 -15 -39 -8 -8 -12 -21 -9 -29 3 -8 -2 -17 -10 -20 -9 -4 -13 -12 -10 -20&#10;3 -8 -2 -20 -11 -27 -8 -7 -15 -25 -15 -41 0 -15 -5 -31 -10 -34 -6 -4 -8 -15&#10;-5 -25 4 -12 0 -22 -11 -28 -9 -5 -14 -15 -12 -23 3 -8 -2 -19 -11 -25 -12&#10;-10 -13 -15 -3 -27 11 -13 10 -16 -8 -22 -17 -5 -20 -12 -16 -30 4 -16 1 -25&#10;-10 -29 -10 -4 -14 -12 -10 -22 4 -11 -1 -22 -14 -31 -17 -12 -19 -17 -8 -30&#10;10 -12 9 -17 -5 -25 -11 -6 -16 -16 -12 -28 3 -11 0 -20 -10 -24 -9 -3 -15&#10;-18 -15 -36 0 -16 -5 -30 -11 -30 -6 0 -9 -9 -6 -19 3 -12 -1 -22 -10 -25 -9&#10;-4 -13 -14 -10 -26 3 -10 -1 -24 -9 -31 -8 -7 -11 -21 -8 -35 5 -18 2 -24 -11&#10;-24 -13 0 -16 -6 -13 -25 4 -17 0 -29 -11 -35 -13 -7 -14 -12 -4 -29 11 -17&#10;10 -20 -10 -23 -16 -2 -22 -10 -22 -30 0 -14 -3 -30 -7 -34 -5 -4 -8 -16 -8&#10;-26 0 -10 -5 -18 -11 -18 -7 0 -9 -9 -6 -21 3 -12 0 -22 -9 -26 -9 -3 -12 -13&#10;-9 -24 4 -11 2 -19 -5 -19 -7 0 -10 -8 -7 -20 3 -10 -2 -25 -9 -31 -8 -7 -13&#10;-18 -10 -26 3 -8 -1 -16 -10 -20 -11 -4 -14 -13 -10 -29 5 -18 2 -24 -10 -24&#10;-12 0 -15 -6 -10 -25 5 -18 2 -27 -9 -31 -10 -4 -13 -13 -10 -25 4 -13 1 -21&#10;-10 -25 -12 -5 -15 -14 -11 -30 4 -14 2 -24 -4 -24 -5 0 -10 -11 -10 -24 0&#10;-13 -7 -27 -16 -30 -13 -5 -14 -9 -3 -22 10 -13 9 -16 -9 -21 -17 -4 -21 -10&#10;-16 -29 4 -15 2 -24 -6 -24 -8 0 -10 -9 -6 -24 4 -16 1 -26 -10 -30 -10 -4&#10;-13 -13 -9 -25 4 -13 0 -20 -16 -24 -19 -5 -20 -8 -9 -22 12 -14 12 -18 0 -25&#10;-7 -4 -14 -21 -16 -37 -1 -15 -14 -59 -28 -98 -40 -110 -38 -119 36 -144 34&#10;-12 66 -17 70 -13 5 5 128 332 274 728 376 1018 631 1708 976 2639 165 446&#10;312 853 325 905 35 129 43 371 19 516 -51 298 -211 583 -439 782 -122 106&#10;-220 161 -304 169 -50 5 -61 11 -109 59 -137 134 -161 323 -59 474 20 29 33&#10;55 30 58 -3 3 -23 0 -44 -7 -48 -14 -84 -55 -125 -141 -27 -57 -31 -75 -31&#10;-155 0 -104 14 -147 77 -237 23 -32 41 -58 42 -58 1 0 28 -11 61 -25 59 -24&#10;60 -25 23 -25 -75 0 -128 37 -178 125 -75 133 -78 269 -6 406 13 26 22 50 18&#10;53 -3 3 -79 6 -170 6 -201 0 -340 19 -484 67 -130 43 -236 103 -321 183 -61&#10;56 -85 69 -100 53z"/>
<path d="M24029 12851 c-54 -33 -83 -69 -100 -118 -31 -96 60 -213 168 -213&#10;60 0 113 45 134 111 10 32 8 43 -13 90 -32 69 -103 159 -126 159 -10 0 -38&#10;-13 -63 -29z"/>
<path d="M25843 10047 l-108 -166 -305 -3 -305 -3 -50 -27 c-59 -32 -110 -76&#10;-100 -86 4 -4 157 -7 341 -6 301 0 334 -1 328 -15 -22 -55 -47 -51 329 -51&#10;190 0 348 4 351 9 3 4 -1 17 -9 27 -8 10 -15 22 -15 26 0 3 2593 4 5763 1&#10;3169 -3 5773 -3 5786 2 23 7 23 8 -20 52 -55 56 -91 75 -137 73 -21 -1 -43 -2&#10;-49 -1 -7 1 -30 36 -52 79 -65 128 -50 120 -251 142 -96 11 -198 22 -227 26&#10;-51 6 -52 6 -75 -33 -28 -45 -74 -147 -83 -185 l-7 -28 -5367 1 -5366 0 -120&#10;161 c-66 89 -126 163 -133 166 -6 2 -59 -68 -119 -161z"/>
<path d="M5057 10083 c-2 -5 -12 -32 -21 -60 -10 -29 -42 -90 -73 -135 -30&#10;-46 -69 -110 -85 -143 -17 -33 -36 -63 -42 -67 -6 -4 -87 -7 -179 -6 l-169 1&#10;-100 -99 c-55 -55 -140 -149 -189 -210 -50 -62 -99 -114 -109 -117 -28 -7&#10;-106 2 -170 19 -30 9 -121 50 -201 91 -119 61 -150 73 -165 65 -14 -8 -23 -7&#10;-36 5 -16 15 -20 15 -36 0 -13 -12 -28 -15 -54 -11 -38 7 -53 -5 -53 -40 0&#10;-22 -51 -42 -59 -23 -3 8 -14 2 -29 -15 -17 -18 -23 -34 -20 -52 5 -22 2 -26&#10;-17 -26 -19 0 -22 -4 -17 -25 3 -18 -2 -30 -15 -39 -17 -12 -18 -18 -8 -36 9&#10;-17 9 -25 -4 -39 -18 -20 -21 -57 -6 -66 6 -3 7 -17 4 -31 -5 -18 3 -39 30&#10;-79 43 -66 108 -115 196 -150 232 -93 422 -181 451 -209 52 -51 54 -63 54&#10;-311 l0 -229 48 3 c28 1 47 -2 47 -8 0 -6 -10 -11 -23 -11 -35 0 -63 -25 -118&#10;-107 -126 -186 -293 -309 -492 -363 -210 -56 -526 -22 -792 85 -103 41 -337&#10;158 -438 218 -39 23 -72 36 -77 31 -10 -11 21 -133 56 -217 122 -302 364 -474&#10;856 -611 55 -16 57 -17 95 -88 21 -39 50 -80 64 -90 14 -11 79 -32 145 -48&#10;223 -54 290 -86 386 -188 71 -75 112 -135 158 -235 60 -129 74 -200 74 -367 0&#10;-162 -12 -223 -69 -346 -45 -99 -98 -174 -196 -279 l-84 -90 -89 -249 c-48&#10;-136 -84 -252 -79 -256 4 -4 53 -11 108 -15 55 -3 107 -8 115 -10 8 -2 56 -6&#10;105 -10 50 -4 94 -10 98 -14 9 -9 -369 -1021 -922 -2469 -100 -261 -188 -501&#10;-197 -535 -24 -90 -22 -228 4 -296 28 -72 64 -122 115 -158 111 -79 228 -71&#10;324 22 42 41 55 61 69 113 9 34 21 62 26 62 7 0 9 -6 11 -42 3 -37 -16 -99&#10;-42 -140 -43 -67 -132 -110 -230 -110 -39 0 -87 6 -108 13 -89 28 -159 103&#10;-205 218 -19 47 -22 75 -22 181 l0 125 251 655 c231 602 599 1573 772 2035 40&#10;104 70 194 69 200 -2 8 -18 7 -50 -2 -45 -13 -47 -16 -72 -81 -134 -356 -601&#10;-1579 -785 -2059 -127 -331 -239 -633 -250 -672 -49 -178 -45 -345 13 -460 43&#10;-85 126 -157 210 -183 31 -10 3525 -12 3550 -2 6 2 26 44 45 92 118 310 210&#10;606 707 2260 151 503 292 960 314 1017 113 288 341 461 655 494 62 7 484 13&#10;1115 15 1091 4 1106 4 1262 56 205 69 386 228 491 430 86 164 116 299 132 585&#10;16 278 81 456 222 606 102 107 202 172 340 220 145 50 127 49 1638 49 1099 0&#10;1415 3 1428 13 11 8 17 31 19 77 l3 65 1626 3 c1574 2 1626 3 1643 21 33 37&#10;38 118 42 656 l4 530 92 5 93 5 2 435 c2 239 1 445 -2 457 -5 20 -12 22 -87&#10;25 l-81 3 -23 92 c-27 110 -67 203 -101 235 -20 19 -38 24 -103 26 l-79 4 -41&#10;123 c-23 68 -47 128 -53 133 -7 6 -117 10 -282 9 l-270 -2 -17 -55 c-10 -30&#10;-27 -88 -38 -127 l-21 -73 -2137 0 c-1175 0 -2506 -3 -2957 -7 -734 -5 -821&#10;-8 -832 -22 -10 -14 -110 -16 -1033 -16 -961 0 -1022 1 -1034 18 -12 16 -103&#10;17 -1632 18 -890 1 -1697 4 -1792 8 l-172 6 -63 110 c-61 107 -63 110 -107&#10;120 l-45 11 -7 68 c-10 99 -7 96 -92 96 -41 0 -77 -3 -79 -7z m5778 -613 c50&#10;-5 109 -16 133 -25 177 -71 185 -377 13 -538 -85 -80 -53 -77 -897 -77 -718 0&#10;-745 1 -797 20 -71 27 -123 81 -152 161 l-23 64 -63 6 c-76 6 -99 18 -134 63&#10;-52 68 -42 149 25 210 35 31 58 40 130 49 9 1 16 15 18 34 l3 33 502 2 c1040&#10;6 1154 6 1242 -2z m-7009 -310 c120 -46 221 -85 224 -87 7 -7 -82 -353 -91&#10;-353 -12 0 -403 157 -453 182 -49 24 -93 63 -112 100 -39 75 4 186 91 237 41&#10;24 118 6 341 -79z m6459 -2265 c202 -46 388 -207 498 -428 60 -120 88 -226 94&#10;-360 13 -263 -73 -492 -252 -673 -125 -127 -230 -182 -386 -204 -97 -14 -1103&#10;-14 -1204 0 -95 13 -159 32 -240 73 -319 159 -486 551 -404 950 65 320 277&#10;560 559 633 78 20 432 30 942 27 252 -2 342 -6 393 -18z"/>
<path d="M9080 6848 c-136 -11 -216 -38 -292 -99 -146 -116 -252 -280 -304&#10;-469 -28 -101 -26 -330 4 -433 26 -90 88 -220 137 -287 58 -79 177 -185 246&#10;-219 104 -50 258 -79 406 -76 26 1 112 2 191 3 78 1 142 5 142 10 -1 4 -26 27&#10;-56 51 -132 106 -270 331 -316 516 -31 124 -31 343 0 458 53 193 157 357 316&#10;495 27 23 47 44 45 46 -8 8 -425 11 -519 4z"/>
<path d="M26295 9650 l-1490 -5 -33 -50 c-48 -73 -115 -200 -147 -280 -16 -38&#10;-30 -71 -31 -73 -1 -2 -31 19 -67 47 -180 136 -341 188 -470 152 -110 -31&#10;-225 -189 -235 -321 -7 -109 31 -156 209 -255 189 -106 379 -244 379 -275 0&#10;-10 -9 -84 -20 -165 -25 -183 -25 -185 0 -185 18 0 18 -1 2 -37 -108 -238&#10;-299 -381 -571 -427 -278 -47 -580 21 -832 187 -47 31 -91 57 -97 57 -19 0&#10;-36 -74 -35 -154 0 -72 4 -85 48 -175 42 -83 61 -109 149 -196 150 -149 276&#10;-215 636 -335 308 -103 429 -168 556 -301 72 -76 111 -132 158 -226 101 -201&#10;132 -502 76 -723 -58 -227 -167 -351 -361 -410 -20 -6 -46 -20 -58 -31 -20&#10;-19 -301 -568 -301 -589 0 -6 74 -10 205 -10 113 0 205 -2 205 -5 0 -2 -13&#10;-30 -29 -62 -16 -32 -111 -245 -211 -473 -236 -537 -400 -912 -554 -1262 -293&#10;-668 -352 -802 -423 -967 l-76 -175 -5 -212 c-5 -208 -4 -215 21 -297 32 -102&#10;101 -210 183 -288 73 -69 131 -103 209 -124 50 -13 387 -47 700 -70 182 -14&#10;213 -16 255 -20 51 -5 91 -8 435 -35 138 -11 309 -24 380 -30 104 -8 681 -52&#10;1120 -85 39 -3 124 -10 190 -15 419 -34 495 -22 495 78 0 69 -47 103 -134 96&#10;-21 -2 -45 0 -51 4 -14 8 1 56 746 2482 260 845 432 1392 454 1436 59 121 237&#10;282 381 345 200 87 207 87 1168 88 969 1 1027 5 1222 85 224 91 430 297 524&#10;523 45 109 67 232 74 418 12 346 79 549 233 716 108 116 214 176 354 198 42 7&#10;520 11 1402 11 897 0 1344 3 1357 10 29 16 65 68 99 143 l30 67 1515 0 1515 0&#10;29 36 c48 58 61 133 69 398 l6 235 36 8 36 9 5 189 5 189 32 7 c41 8 63 26 79&#10;65 36 87 38 773 2 896 -14 49 -54 85 -103 96 -36 7 -40 11 -37 35 2 16 -2 29&#10;-11 32 -18 8 -9702 11 -11602 5z m-1975 -421 c59 -28 210 -132 210 -145 0 -3&#10;-19 -75 -42 -159 -27 -101 -45 -152 -52 -147 -6 4 -74 48 -151 98 -229 149&#10;-262 193 -215 289 47 97 133 119 250 64z m6040 -2133 c268 -42 510 -218 631&#10;-458 64 -127 83 -212 83 -363 -1 -254 -83 -449 -258 -612 -117 -110 -279 -186&#10;-451 -212 -91 -14 -1048 -6 -1073 8 -12 8 10 11 83 12 55 1 105 2 110 4 6 1&#10;31 3 58 3 26 1 47 6 47 11 0 5 -24 42 -53 81 -235 312 -298 719 -171 1105 31&#10;94 89 213 151 309 24 37 42 73 40 80 -4 12 -8 12 -206 14 -68 1 -121 5 -117 9&#10;4 4 62 10 129 13 175 7 944 4 997 -4z"/>
<path d="M3503 1116 c10 -8 58 -17 110 -21 51 -3 108 -8 127 -10 19 -2 71 -6&#10;115 -10 179 -13 286 -22 375 -30 25 -3 162 -14 305 -25 143 -11 285 -22 315&#10;-25 30 -3 327 -28 660 -55 333 -28 632 -52 665 -56 127 -11 251 -20 285 -20&#10;l35 1 17 110 c9 61 17 120 17 133 l1 22 -1522 0 c-1290 -1 -1520 -3 -1505 -14z"/>
</g>
</svg>