<?xml version="1.0" standalone="no"?>
<!DOCTYPE svg PUBLIC "-//W3C//DTD SVG 20010904//EN"
 "http://www.w3.org/TR/2001/REC-SVG-20010904/DTD/svg10.dtd">
<svg version="1.0" xmlns="http://www.w3.org/2000/svg"
 width="524.000000pt" height="360.000000pt" viewBox="0 0 524.000000 360.000000"
 preserveAspectRatio="xMidYMid meet">

<g transform="translate(0.000000,360.000000) scale(0.100000,-0.100000)"
fill="#000000" stroke="none">
<path d="M1098 3360 c-9 -6 -24 -30 -33 -54 l-17 -43 -65 -6 c-36 -4 -79 -15
-96 -25 -18 -11 -55 -27 -83 -36 -48 -16 -54 -16 -114 3 -72 23 -98 17 -132
-30 -20 -26 -20 -26 12 -129 17 -57 30 -112 27 -124 -12 -54 -88 -241 -112
-277 -32 -50 -100 -93 -168 -109 -59 -14 -76 -25 -88 -57 -12 -31 8 -82 34
-88 12 -3 59 -9 103 -14 99 -10 160 -39 216 -99 71 -77 99 -176 79 -273 -6
-29 -106 -289 -221 -578 -160 -404 -212 -547 -225 -616 -30 -156 -8 -415 34
-415 6 0 22 -22 35 -48 32 -63 47 -74 104 -80 41 -3 53 0 78 21 l31 26 40 -20
c35 -17 86 -22 429 -39 468 -24 465 -24 490 -6 18 13 19 32 25 273 7 287 -5
217 115 666 90 338 113 384 218 433 67 31 130 31 281 -2 160 -35 354 -37 490
-5 114 27 377 110 390 122 5 6 12 78 16 162 5 150 6 153 43 230 44 92 119 173
198 211 113 55 148 58 720 63 l528 5 12 26 13 27 161 6 c88 3 166 9 172 13 21
12 32 109 32 271 l0 165 74 0 74 0 11 31 c12 35 13 218 2 259 -6 23 -12 25
-71 28 -85 3 -110 9 -110 27 0 26 -72 85 -123 100 -76 23 -87 20 -104 -24 -10
-27 -23 -41 -40 -45 -13 -4 -29 -18 -35 -31 l-11 -25 -1110 0 c-1045 0 -1111
1 -1123 18 -12 16 -48 17 -553 14 l-541 -3 -21 48 c-27 63 -50 76 -91 53z
m-434 -212 c14 -23 -3 -52 -32 -56 -29 -4 -51 40 -32 63 16 20 49 16 64 -7z
m2106 -903 c86 -58 157 -188 147 -269 -8 -55 -62 -160 -100 -192 -52 -44 -144
-81 -257 -105 -189 -38 -463 -13 -598 55 -63 32 -100 70 -130 135 -21 45 -24
64 -20 120 9 126 63 207 172 257 74 35 120 32 161 -9 30 -30 33 -38 32 -95 0
-53 5 -74 38 -137 71 -140 218 -262 307 -253 53 5 47 31 -16 67 -72 42 -140
118 -167 189 -17 47 -20 71 -16 137 3 44 10 93 16 109 l11 28 188 -3 187 -4
45 -30z m-2336 -1873 c8 -14 -23 -52 -43 -52 -22 0 -41 19 -41 42 0 14 8 18
39 18 22 0 42 -4 45 -8z"/>
</g>
</svg>
