<?xml version="1.0" standalone="no"?>
<!DOCTYPE svg PUBLIC "-//W3C//DTD SVG 20010904//EN"
 "http://www.w3.org/TR/2001/REC-SVG-20010904/DTD/svg10.dtd">
<svg version="1.0" xmlns="http://www.w3.org/2000/svg"
 width="800.000000pt" height="504.000000pt" viewBox="0 0 800.000000 504.000000"
 preserveAspectRatio="xMidYMid meet">

<g transform="translate(0.000000,504.000000) scale(0.100000,-0.100000)"
fill="#000000" stroke="none">
<path d="M7435 5026 c-85 -22 -124 -43 -183 -100 -67 -64 -120 -90 -212 -105
-77 -13 -657 -27 -1658 -41 l-724 -11 -66 28 -67 27 -575 -2 c-447 -2 -611 0
-738 12 -142 13 -185 13 -343 1 -190 -15 -276 -10 -374 20 -139 44 -261 -71
-200 -189 25 -48 20 -73 -17 -81 -61 -14 -105 -43 -130 -87 -35 -64 -97 -103
-163 -103 -45 0 -61 6 -108 38 -69 48 -131 67 -216 67 -85 0 -108 -7 -115 -34
-15 -59 16 -85 132 -111 59 -14 80 -24 129 -67 79 -69 107 -111 107 -156 -1
-70 -26 -227 -43 -272 -31 -84 -156 -136 -456 -190 -93 -17 -213 -42 -265 -55
-52 -14 -117 -25 -145 -26 -69 0 -117 -19 -132 -50 -10 -21 -9 -37 7 -95 27
-92 27 -225 0 -329 -28 -108 -145 -331 -328 -622 -176 -282 -208 -341 -260
-494 -51 -149 -71 -237 -131 -579 -27 -157 -70 -382 -95 -500 -101 -485 -88
-656 61 -780 104 -86 199 -107 523 -120 135 -5 313 -12 395 -16 173 -8 272 4
355 42 104 47 126 81 161 241 27 125 49 175 103 233 61 65 65 94 32 233 -30
130 -31 145 -11 263 18 105 56 226 97 307 l29 58 -28 46 c-21 37 -28 62 -31
127 -14 262 154 470 389 484 108 6 157 -12 260 -99 46 -39 99 -78 116 -87 32
-15 34 -15 59 9 26 24 26 24 247 24 192 0 234 3 313 22 183 43 330 104 475
198 125 81 150 122 189 317 20 95 37 154 56 186 41 71 140 164 209 197 58 28
67 30 240 35 194 6 227 14 276 66 l24 26 0 346 c0 480 -23 452 368 457 138 2
331 8 427 14 96 5 243 13 327 17 l151 6 32 45 c17 24 55 61 83 83 102 76 346
182 462 200 39 6 370 14 745 19 468 6 687 12 713 20 79 25 95 92 79 331 -11
183 -51 382 -81 413 -11 12 -39 20 -77 24 -68 7 -91 22 -100 69 -5 25 -13 35
-37 44 -49 18 -204 22 -262 6z m-4095 -2216 c278 -67 426 -241 376 -441 -41
-161 -183 -277 -427 -347 -216 -63 -379 -83 -509 -63 -102 16 -167 50 -233
121 -117 126 -137 285 -52 409 18 26 49 79 68 117 19 38 44 77 54 87 21 18 48
15 57 -8 8 -21 54 -41 128 -55 96 -17 101 -24 108 -117 8 -104 41 -175 122
-259 79 -83 202 -148 262 -141 86 12 72 38 -55 103 -98 51 -133 86 -176 180
-36 79 -43 189 -17 271 14 44 31 71 70 111 47 47 57 52 96 52 24 0 81 -9 128
-20z"/>
</g>
</svg>
