<?xml version="1.0" standalone="no"?>
<!DOCTYPE svg PUBLIC "-//W3C//DTD SVG 20010904//EN"
 "http://www.w3.org/TR/2001/REC-SVG-20010904/DTD/svg10.dtd">
<svg version="1.0" xmlns="http://www.w3.org/2000/svg"
 width="3000.000000pt" height="2000.000000pt" viewBox="0 0 3000.000000 2000.000000"
 preserveAspectRatio="xMidYMid meet">

<g transform="translate(0.000000,2000.000000) scale(0.100000,-0.100000)"
fill="#000000" stroke="none">
<path d="M17076 13575 c-12 -12 -15 -43 -14 -158 0 -78 3 -145 5 -150 2 -4 10
-4 16 0 15 9 89 4 103 -8 6 -5 16 -27 23 -49 9 -32 16 -40 36 -40 39 0 53 -22
45 -74 -4 -26 -10 -50 -14 -54 -4 -4 -1093 -7 -2419 -7 -1327 -1 -2903 -2
-3503 -3 l-1091 -3 -52 -24 c-151 -70 -333 -218 -486 -395 -76 -87 -84 -90
-155 -65 -23 8 -67 15 -96 15 -52 0 -54 -1 -80 -42 -44 -69 -98 -184 -94 -198
1 -3 18 -10 38 -16 25 -7 37 -16 36 -27 -2 -20 -60 -89 -89 -106 -11 -7 -34
-37 -50 -68 -24 -44 -37 -58 -65 -67 -28 -9 -36 -18 -41 -44 -4 -19 -11 -38
-17 -44 -5 -5 -145 -11 -338 -13 -280 -3 -361 -7 -544 -29 -118 -15 -222 -28
-230 -31 -8 -2 -40 -7 -70 -10 -30 -3 -167 -28 -305 -55 -137 -26 -290 -53
-340 -60 -49 -6 -130 -18 -180 -26 -144 -23 -383 -31 -530 -17 -175 16 -226
26 -347 66 -275 92 -292 95 -648 102 -680 13 -4309 30 -4382 21 -50 -6 -59
-11 -64 -32 -3 -13 -9 -24 -13 -24 -15 0 -51 -91 -63 -160 -15 -81 -15 -380
-1 -710 8 -172 -1 -834 -12 -877 -3 -13 -11 -23 -18 -23 -25 0 -85 -75 -102
-128 -34 -105 -7 -267 53 -316 22 -18 23 -23 18 -110 -6 -96 -12 -157 -47
-451 -21 -181 -21 -343 0 -396 10 -27 73 -61 141 -78 108 -26 177 -31 361 -27
184 4 264 13 335 36 17 6 40 12 50 14 18 4 202 63 634 206 153 50 536 174 715
231 33 10 121 39 195 63 74 24 178 57 230 74 101 32 617 198 735 237 39 12
104 33 145 46 41 12 127 39 190 60 63 20 196 63 295 94 99 31 225 72 280 91
214 72 637 179 845 214 69 11 150 25 180 31 30 6 84 14 120 19 68 9 150 23
393 64 82 14 167 28 190 31 48 7 247 38 417 66 129 21 200 33 280 51 30 6 59
11 63 10 4 -1 38 5 75 14 37 9 83 18 102 20 19 3 98 18 175 34 77 16 259 52
405 80 146 28 310 60 365 70 55 11 118 22 140 26 22 3 87 15 145 26 85 17 140
21 292 21 103 -1 192 -4 198 -8 27 -17 62 -110 66 -175 4 -75 64 -260 94 -290
5 -5 26 -40 47 -80 17 -32 16 -140 -1 -210 -8 -30 -55 -174 -106 -320 -50
-146 -118 -344 -150 -440 -33 -96 -86 -254 -118 -350 -33 -96 -66 -195 -74
-220 -8 -25 -51 -153 -96 -285 -79 -237 -130 -398 -136 -432 -24 -130 -24
-189 -3 -263 20 -67 35 -97 65 -130 12 -14 22 -28 22 -31 0 -11 45 -54 93 -87
123 -86 299 -155 498 -193 100 -19 135 -21 309 -16 195 5 250 14 350 53 162
64 189 139 109 300 -71 143 -70 145 90 629 73 220 169 510 213 645 189 576
299 902 312 928 42 81 170 145 280 141 52 -2 96 -24 96 -47 0 -4 30 -39 68
-78 145 -153 368 -212 752 -200 107 3 205 8 216 10 12 3 89 12 170 21 82 10
156 21 164 25 8 4 35 10 60 14 64 9 141 36 135 47 -4 5 1 6 9 3 21 -8 241 64
273 89 32 25 53 75 53 123 0 40 -3 40 80 8 33 -13 80 -18 173 -20 98 -1 133
-6 152 -18 30 -20 30 -26 6 -130 -34 -143 -36 -181 -11 -221 12 -20 27 -34 34
-32 21 7 58 139 81 292 47 302 65 457 73 613 5 94 11 175 15 178 13 14 26 -12
67 -128 23 -68 46 -132 50 -143 5 -11 25 -69 46 -130 20 -60 42 -123 49 -140
7 -16 50 -140 94 -275 103 -314 102 -309 118 -347 7 -17 13 -36 13 -42 0 -6
20 -73 44 -148 24 -76 49 -163 56 -193 7 -30 16 -64 21 -75 4 -11 15 -51 23
-90 37 -166 96 -373 136 -480 11 -27 46 -126 80 -220 33 -93 64 -179 69 -190
14 -30 49 -127 57 -155 3 -14 14 -43 24 -65 9 -22 25 -60 35 -85 10 -25 26
-64 36 -87 11 -24 19 -46 19 -50 0 -5 6 -19 13 -33 7 -14 21 -50 31 -80 10
-30 22 -63 27 -72 5 -10 28 -64 50 -120 23 -57 47 -116 54 -133 7 -16 38 -94
69 -173 32 -78 87 -200 123 -270 36 -70 97 -188 136 -262 155 -300 356 -700
352 -700 -3 0 2 -11 11 -25 9 -13 40 -75 70 -136 29 -62 58 -117 64 -123 5 -5
10 -14 10 -19 0 -6 50 -111 111 -234 l112 -223 -17 -51 c-25 -79 -22 -95 20
-109 21 -7 60 -10 90 -7 45 5 65 15 136 67 46 33 90 66 98 73 25 20 291 217
395 292 53 39 134 97 178 131 45 33 114 81 152 106 39 25 117 76 175 114 58
38 112 73 122 79 26 16 206 139 293 200 44 30 111 84 149 118 76 68 226 235
226 252 0 5 -15 26 -33 47 -48 54 -68 78 -112 133 -22 28 -42 52 -45 55 -7 7
-134 170 -190 245 -25 33 -48 62 -51 65 -3 3 -8 10 -10 15 -2 6 -44 71 -93
145 -130 197 -156 239 -156 248 0 4 -11 23 -23 42 -13 19 -50 85 -82 145 -187
351 -324 682 -430 1035 -26 85 -67 218 -91 295 -41 128 -63 190 -140 400 -106
284 -230 729 -309 1105 -75 355 -154 764 -159 820 -2 21 57 27 379 40 412 16
484 20 560 25 39 3 126 7 195 10 69 3 159 7 200 10 41 2 116 7 165 10 50 3 95
2 101 -2 5 -5 30 -37 53 -73 24 -36 67 -86 96 -112 59 -52 121 -71 230 -70 61
0 200 30 258 56 30 13 262 104 412 162 177 68 281 89 485 99 69 3 159 8 200
10 41 2 183 7 315 11 132 3 294 9 360 14 66 4 201 8 300 9 99 1 216 4 260 6
130 8 298 14 500 20 105 3 296 10 425 15 129 5 309 12 400 15 91 3 221 7 290
10 69 2 197 7 285 10 88 3 187 8 220 11 56 6 115 29 115 45 0 17 41 19 70 4
55 -29 205 -17 282 22 21 10 29 23 34 54 4 22 12 42 18 44 10 3 549 8 2128 21
l627 5 23 -31 22 -31 86 6 c108 7 152 14 168 27 7 6 12 34 12 69 l0 59 33 -6
c17 -4 68 -16 112 -27 69 -18 105 -21 255 -20 96 1 317 1 490 1 703 -4 669 -6
733 55 30 28 49 57 58 87 7 25 16 50 21 56 8 11 77 -4 238 -51 30 -9 87 -25
125 -35 39 -11 97 -28 129 -40 78 -27 87 -26 123 13 42 43 70 103 89 184 8 38
17 75 20 84 3 12 -13 25 -59 48 -116 58 -118 135 -4 155 20 4 37 11 37 17 0
25 -34 157 -47 182 -18 37 -75 61 -128 54 -22 -2 -125 -31 -230 -65 -247 -78
-231 -75 -261 -44 -32 34 -57 80 -49 92 10 16 -48 60 -100 76 -41 12 -122 15
-462 14 -227 0 -445 4 -485 10 -159 20 -402 29 -441 15 -30 -11 -100 -12 -130
-4 -27 9 -38 22 -69 87 l-37 77 -8 195 c-14 344 -10 656 10 728 9 35 17 72 17
82 0 30 -36 105 -69 142 l-31 35 -129 7 c-112 6 -133 5 -155 -10 -14 -9 -26
-21 -26 -28 -1 -16 -38 -41 -84 -56 -22 -7 -41 -20 -43 -31 -3 -11 -9 -19 -13
-19 -17 0 -39 -123 -54 -295 -2 -31 0 -43 8 -38 6 4 3 -5 -7 -21 -10 -15 -16
-33 -14 -41 8 -18 -12 -98 -26 -108 -7 -4 -86 -5 -177 -2 -224 8 -495 13
-1070 21 -267 3 -519 8 -560 9 -41 2 -169 7 -285 10 -278 9 -350 28 -380 98
-7 18 -23 43 -35 57 -12 14 -28 33 -35 43 -9 14 -34 20 -96 27 -88 9 -95 7
-101 -24 -5 -29 -23 -30 -50 -3 l-25 25 -294 6 c-162 4 -321 9 -354 11 -33 3
-256 10 -495 15 -239 6 -534 12 -655 15 -121 3 -337 7 -480 10 -143 2 -408 7
-590 10 -276 6 -338 4 -377 -8 -45 -14 -48 -14 -85 11 -31 21 -54 27 -122 32
l-84 5 -15 -32 c-15 -31 -59 -52 -81 -39 -5 3 -12 31 -16 63 -6 46 -13 63 -39
89 -51 51 -116 64 -271 58 -71 -3 -143 -6 -160 -7 -39 -1 -117 47 -109 68 4 8
1 15 -5 15 -5 0 -26 14 -44 30 -48 41 -87 40 -140 -5 -22 -19 -50 -35 -61 -35
-180 -2 -212 -5 -243 -28 l-33 -23 -447 2 -448 1 -62 59 c-80 74 -125 90 -179
62 -27 -14 -45 -34 -63 -71 -15 -29 -29 -52 -32 -52 -4 0 -17 9 -30 19 -21 17
-24 27 -23 83 1 36 -4 66 -10 70 -21 14 -124 9 -140 -7z m9366 -1006 c42 -22
71 -126 48 -170 -33 -60 -170 28 -170 109 0 59 65 91 122 61z m-1767 -295
c330 -3 615 -7 634 -9 18 -1 54 4 79 11 66 20 162 18 215 -5 49 -21 67 -43 59
-73 -3 -11 1 -24 9 -29 9 -6 10 -12 4 -16 -12 -10 -20 -67 -8 -60 5 3 10 -4
10 -16 2 -17 0 -19 -7 -7 -7 12 -10 9 -10 -12 0 -16 6 -28 13 -28 6 -1 1 -7
-13 -15 -21 -12 -61 -14 -230 -10 -221 5 -1044 17 -1175 16 -89 0 -172 12
-255 37 -80 23 -83 26 -75 94 4 35 3 63 -3 71 -9 11 -16 41 -13 61 0 4 38 6
84 2 45 -3 352 -8 682 -12z m260 -758 c380 -4 704 -9 721 -11 19 -3 39 -17 52
-35 12 -16 36 -37 53 -46 28 -14 36 -14 73 -1 79 29 95 29 151 2 59 -27 126
-33 144 -11 21 25 50 25 80 0 35 -29 47 -64 23 -65 -10 0 -190 0 -402 2 -212
1 -567 2 -790 2 -223 -1 -576 -1 -785 -1 -209 0 -408 -1 -443 -2 -99 -2 -116
27 -62 105 17 24 36 47 42 51 26 16 90 21 268 18 102 -1 496 -5 875 -8z
m-11501 -929 c13 -13 26 -41 30 -62 8 -41 2 -51 -73 -105 -15 -11 -21 -27 -22
-60 -1 -43 8 -194 16 -270 3 -19 7 -73 10 -120 3 -47 8 -113 11 -148 10 -108
-2 -159 -50 -209 -40 -43 -43 -45 -136 -58 -52 -7 -174 -29 -270 -48 -261 -53
-398 -68 -617 -68 -179 0 -277 9 -348 30 -72 21 -167 74 -193 108 -15 20 -34
43 -42 52 -8 9 -32 52 -53 95 -38 76 -39 84 -45 215 -8 157 0 357 18 484 l12
89 117 -5 c64 -3 124 -8 134 -12 28 -11 37 -39 37 -112 0 -161 55 -345 129
-432 77 -92 103 -116 166 -154 66 -40 219 -100 244 -95 8 2 18 14 22 28 6 26
-12 48 -91 108 -53 40 -106 99 -157 173 -76 111 -112 244 -92 341 13 63 52
149 76 170 27 23 295 49 548 54 208 4 505 21 514 30 2 2 22 4 43 4 27 0 46 -7
62 -23z m-10391 -1303 c26 -15 -5 -69 -60 -104 -67 -43 -131 -59 -253 -64
-164 -7 -182 2 -140 69 24 39 106 85 180 101 59 14 248 12 273 -2z"/>
</g>
</svg>
