<?xml version="1.0" standalone="no"?>
<!DOCTYPE svg PUBLIC "-//W3C//DTD SVG 20010904//EN"
 "http://www.w3.org/TR/2001/REC-SVG-20010904/DTD/svg10.dtd">
<svg version="1.0" xmlns="http://www.w3.org/2000/svg"
 width="1600.000000pt" height="500.000000pt" viewBox="0 0 1600.000000 500.000000"
 preserveAspectRatio="xMidYMid meet">

<g transform="translate(0.000000,500.000000) scale(0.100000,-0.100000)"
fill="#000000" stroke="none">
<path d="M7220 4535 l0 -195 -147 6 c-109 4 -161 1 -198 -9 -46 -12 -50 -16
-53 -46 l-3 -34 -62 6 c-49 4 -85 17 -172 62 l-110 56 -146 -1 -147 0 -6 -35
c-4 -19 -4 -62 0 -94 5 -50 10 -60 29 -65 16 -4 24 -15 28 -42 8 -48 3 -54
-39 -54 -34 0 -34 0 -34 -45 l0 -45 185 0 185 0 0 -25 c0 -22 -4 -25 -35 -25
-28 0 -35 -4 -35 -20 0 -17 -7 -20 -40 -20 -33 0 -40 3 -40 20 0 20 -7 20
-347 20 -314 -1 -486 -9 -502 -26 -3 -3 -8 -45 -9 -93 l-4 -88 -51 -12 c-29
-7 -96 -15 -149 -18 -54 -3 -98 -9 -98 -13 0 -8 -97 -22 -145 -21 -16 1 -352
1 -746 0 -654 -1 -719 0 -742 15 -45 30 -173 34 -960 29 l-772 -5 -90 40 -90
39 -315 -5 -316 -4 -13 28 c-7 16 -26 50 -42 75 -28 44 -31 46 -62 39 -19 -4
-89 -5 -158 -3 -163 6 -195 -4 -227 -70 -29 -61 -47 -191 -37 -266 5 -31 9
-104 9 -163 1 -70 6 -112 14 -120 15 -15 17 -315 3 -399 -5 -30 -21 -130 -36
-224 -45 -289 -62 -392 -109 -648 -25 -136 -46 -264 -46 -285 1 -55 25 -79 85
-84 28 -3 88 -16 135 -30 47 -14 108 -29 136 -33 l52 -7 59 84 c73 100 108
168 118 226 4 28 12 42 22 42 8 0 61 48 118 107 101 105 103 106 131 95 16 -7
56 -17 89 -23 33 -6 80 -15 105 -19 56 -11 301 -12 316 -2 6 4 18 21 27 38 24
47 92 103 141 116 35 9 45 18 55 43 16 46 73 95 130 115 46 15 54 23 79 71 39
77 73 92 230 99 67 3 122 1 122 -3 0 -15 53 -57 71 -57 14 0 19 -7 19 -25 0
-16 7 -28 18 -31 9 -3 25 -10 34 -14 10 -6 38 -5 72 2 52 10 56 13 56 39 0 27
3 29 38 29 33 1 40 5 63 44 19 31 36 46 56 50 17 4 47 25 68 46 34 35 37 42
28 63 -10 22 -4 31 65 103 43 44 88 100 101 126 23 42 29 46 69 52 24 3 88 3
141 0 130 -9 212 1 218 27 5 18 21 19 483 19 l477 0 59 59 59 58 267 8 c256 7
266 6 265 -11 -2 -17 7 -19 69 -22 l71 -3 7 -52 c3 -29 6 -92 6 -141 l0 -88
68 7 c55 5 77 3 122 -14 72 -28 143 -81 177 -133 24 -36 28 -51 26 -107 -1
-73 -35 -184 -77 -256 -40 -67 -133 -188 -236 -305 -110 -125 -222 -273 -354
-470 -54 -80 -108 -156 -120 -170 -13 -14 -37 -52 -55 -84 -28 -49 -31 -63
-22 -83 18 -40 163 -92 382 -137 63 -13 155 -36 204 -50 92 -27 207 -45 282
-46 59 0 70 22 53 110 -12 61 -11 70 8 113 23 51 76 95 141 117 l41 13 -2 91
c-2 101 14 147 69 197 31 30 104 69 127 69 25 0 27 17 11 81 -17 66 -14 102
15 159 20 39 102 120 121 120 7 0 20 6 28 14 13 12 99 15 472 19 l456 4 22
-111 c11 -61 32 -223 46 -361 39 -387 48 -439 126 -740 22 -82 48 -188 59
-235 11 -47 32 -112 47 -145 16 -37 26 -76 25 -105 -1 -57 39 -134 78 -150 34
-14 124 6 234 52 39 16 112 38 161 48 131 27 346 87 413 114 31 13 84 32 117
43 78 24 92 47 69 123 -8 28 -24 68 -34 89 -61 119 -238 1084 -255 1391 -6
101 -11 130 -27 152 l-19 28 26 10 c14 5 33 10 41 10 25 0 27 28 5 70 -19 37
-21 57 -21 246 0 202 1 207 25 253 20 35 38 52 77 71 61 29 102 82 94 120 -3
14 -8 35 -12 48 -5 16 -2 22 8 22 11 0 17 -16 22 -55 11 -96 10 -96 140 -69
61 13 117 23 124 24 8 0 12 -17 12 -55 l0 -55 119 0 c116 0 120 1 123 23 2 14
11 23 26 25 18 3 22 -1 22 -22 0 -25 3 -26 55 -26 52 0 55 1 55 25 0 34 47 37
52 3 3 -20 10 -23 55 -26 47 -3 52 -1 55 20 2 15 11 24 26 26 18 3 22 -1 22
-22 0 -25 3 -26 55 -26 52 0 55 1 55 25 0 14 4 25 9 25 5 0 16 3 25 6 13 5 16
-1 16 -25 0 -31 1 -31 50 -31 45 0 50 3 56 25 4 18 13 25 29 25 18 0 22 -4 18
-20 -5 -17 0 -20 33 -20 22 0 49 -3 60 -6 17 -4 23 0 28 19 8 34 36 44 36 13
0 -29 12 -34 72 -28 35 3 47 8 51 23 7 25 37 25 37 -1 0 -18 7 -20 65 -20 57
0 65 2 65 19 0 28 28 35 32 8 3 -19 10 -22 61 -25 52 -3 59 -1 64 17 7 27 33
27 33 1 0 -18 7 -20 60 -20 55 0 60 2 66 25 12 48 34 22 34 -40 0 -55 19 -82
76 -110 30 -15 74 -50 104 -82 47 -51 51 -60 46 -92 -3 -20 -10 -99 -16 -176
-6 -77 -17 -160 -25 -185 -16 -51 -29 -121 -45 -233 -10 -68 -9 -85 6 -126 16
-45 16 -51 0 -96 -21 -64 -20 -90 5 -114 l22 -20 -22 -36 c-27 -46 -27 -79 1
-122 20 -33 20 -37 5 -63 -23 -38 -21 -59 8 -103 14 -20 21 -37 15 -37 -22 0
-9 -41 16 -50 28 -11 486 -14 547 -4 34 6 37 9 36 38 0 17 7 51 16 75 14 39
14 46 2 59 -13 12 -13 19 0 49 20 48 19 107 -2 154 -17 36 -17 40 -2 57 21 23
21 51 2 121 -13 49 -12 56 2 66 24 18 11 189 -27 350 -17 72 -35 177 -40 235
-5 58 -12 125 -15 150 l-6 45 83 88 c101 106 120 111 158 40 14 -27 33 -50 44
-52 11 -1 48 5 82 14 56 15 64 21 74 49 7 21 7 42 0 66 -6 19 -10 59 -10 88 0
58 -13 92 -35 92 -23 0 -28 19 -11 45 10 15 16 46 16 83 0 90 3 92 201 92
l165 0 22 -30 c19 -25 22 -42 22 -115 l0 -85 49 0 c27 0 57 -3 66 -6 11 -5 19
2 27 23 10 28 17 31 86 42 42 6 78 13 80 16 2 2 1 29 -3 60 -6 52 -9 57 -48
78 l-42 22 290 5 c160 3 295 8 300 12 6 3 56 11 110 17 102 12 206 2 213 -19
5 -13 684 -13 1129 0 295 9 357 8 447 -5 58 -9 138 -15 178 -14 143 3 255 2
415 -2 157 -4 163 -3 185 18 19 20 23 35 26 123 5 116 1 138 -33 178 -23 27
-28 29 -72 22 -60 -9 -442 -5 -472 5 -12 4 -28 2 -35 -4 -9 -8 -34 -9 -71 -5
-45 6 -61 4 -69 -7 -9 -12 -132 -14 -814 -14 -703 0 -804 -2 -812 -15 -13 -20
-178 -26 -285 -9 -44 7 -210 15 -370 18 l-290 6 -7 225 c-14 433 -23 594 -37
620 -7 14 -25 37 -39 53 -32 34 -92 37 -157 6 -49 -23 -76 -53 -149 -168 -26
-41 -85 -117 -130 -170 -46 -53 -96 -118 -111 -146 -16 -27 -50 -73 -77 -102
l-48 -52 0 30 c0 44 -32 52 -179 46 -114 -4 -126 -6 -139 -26 -18 -26 -32 -27
-32 -2 0 39 -109 39 -133 0 -16 -25 -24 -24 -31 6 -4 14 -13 25 -22 25 -34 0
-106 -24 -111 -36 -8 -22 -20 -16 -27 12 -7 25 -9 26 -53 19 -60 -9 -73 -14
-73 -31 0 -8 -7 -14 -15 -14 -8 0 -15 9 -15 20 0 39 -111 35 -126 -5 -9 -21
-32 -19 -39 5 -5 16 -15 20 -56 20 -38 0 -52 -4 -61 -20 -18 -28 -48 -27 -40
2 5 20 3 21 -54 14 -35 -4 -62 -13 -67 -21 -12 -21 -34 -18 -40 5 -3 13 -14
20 -30 20 -46 0 -87 -12 -87 -26 0 -22 -37 -16 -43 6 -4 14 -14 20 -35 20 -39
0 -93 -20 -86 -31 3 -5 -4 -9 -15 -9 -15 0 -21 6 -21 21 0 19 -4 20 -52 14
-29 -4 -58 -13 -64 -21 -16 -20 -42 -17 -49 6 -6 19 -12 20 -53 14 -26 -3 -52
-12 -58 -20 -18 -22 -54 -18 -54 7 0 18 -4 20 -47 14 -27 -4 -53 -13 -59 -21
-17 -21 -44 -17 -44 6 0 17 -7 20 -51 20 -42 0 -52 -3 -56 -20 -4 -14 -14 -20
-34 -20 -22 0 -29 5 -29 20 0 17 -7 20 -46 20 -37 0 -47 -4 -51 -20 -3 -13
-14 -20 -28 -20 -15 0 -26 8 -30 20 -6 18 -15 20 -79 20 -115 0 -156 -22 -156
-84 0 -29 -17 -32 -85 -16 -141 35 -173 33 -182 -10 -3 -16 -13 -30 -24 -33
-16 -4 -18 3 -21 61 l-3 67 -50 8 c-73 12 -156 0 -162 -24 -7 -27 -53 -26 -53
1 0 38 -78 41 -95 2 -13 -29 -61 -31 -70 -2 -5 16 -15 20 -50 20 -38 0 -43 -2
-38 -20 5 -18 0 -20 -36 -20 -34 0 -41 3 -41 19 0 37 -74 37 -85 0 -5 -14 -16
-19 -41 -19 -28 0 -34 4 -34 21 0 18 -5 20 -42 17 -34 -2 -43 -7 -42 -20 3
-28 -72 -25 -79 2 -4 16 -14 20 -46 20 -34 0 -41 -3 -41 -20 0 -17 -7 -20 -41
-20 -36 0 -40 2 -34 20 5 16 2 20 -14 20 -19 0 -21 4 -15 40 8 52 -3 110 -21
110 -18 0 -20 21 -4 37 12 12 -108 573 -125 585 -6 4 -35 8 -63 8 l-53 0 0
-195z m4996 -113 c6 -13 9 -33 6 -45 -3 -12 -7 -16 -10 -9 -2 6 -12 12 -21 12
-23 0 -75 57 -58 64 29 12 72 0 83 -22z m-143 -191 c5 -5 13 -45 18 -88 4 -43
8 -79 8 -79 1 -1 21 -7 45 -14 l45 -12 7 -65 c6 -63 1 -139 -10 -151 -12 -12
-114 -21 -241 -21 -137 0 -209 9 -228 28 -17 17 15 69 157 262 l120 161 35 -6
c19 -3 39 -10 44 -15z m-10493 -504 c0 -11 -41 -15 -187 -20 -291 -11 -333
-10 -333 8 0 12 37 15 253 18 138 1 255 3 260 5 4 1 7 -4 7 -11z m8178 -43 c2
-13 -4 -24 -15 -29 -10 -4 -102 -10 -204 -12 l-186 -6 -39 36 -39 37 240 -3
c236 -2 240 -2 243 -23z m437 16 c77 -5 170 -10 208 -11 48 -1 67 -6 67 -15 0
-22 -47 -29 -190 -29 -146 1 -228 15 -256 46 -21 23 -28 23 171 9z m974 -26
c15 -14 -29 -19 -167 -19 -155 1 -246 10 -225 23 11 7 385 3 392 -4z m941 -39
c0 -13 -23 -15 -172 -13 -126 2 -172 6 -176 16 -3 9 36 12 172 12 151 0 176
-2 176 -15z m3349 -131 c38 -8 40 -31 4 -45 -38 -15 -153 -2 -153 17 0 24 85
40 149 28z m121 -19 c0 -8 -4 -15 -10 -15 -5 0 -10 7 -10 15 0 8 5 15 10 15 6
0 10 -7 10 -15z m-5310 -217 c41 -2 91 1 111 6 32 7 41 4 70 -22 19 -17 32
-33 29 -35 -3 -3 -108 -7 -234 -8 -239 -3 -256 0 -225 37 22 26 51 34 114 29
33 -3 94 -6 135 -7z m888 -16 c18 -13 30 -28 27 -33 -4 -5 -103 -9 -227 -9
l-220 0 6 23 c3 12 6 25 6 29 0 12 54 16 215 14 150 -1 162 -2 193 -24z
m-1426 -3 c23 -12 38 -28 38 -41 0 -5 -108 -8 -241 -8 l-240 0 3 28 c3 27 4
27 98 33 131 9 315 2 342 -12z m1878 -149 c0 -22 -4 -40 -10 -40 -5 0 -10 18
-10 40 0 22 5 40 10 40 6 0 10 -18 10 -40z m95 -152 c0 -60 -1 -62 -29 -69
-17 -5 -31 -7 -33 -6 -1 2 -5 28 -9 59 -6 54 -6 56 22 66 47 17 49 15 49 -50z
m-10135 2 l0 -30 -92 0 c-51 0 -164 -3 -250 -7 l-158 -6 0 31 0 31 68 4 c37 2
149 4 250 5 l182 2 0 -30z m5091 -367 c-15 -54 -14 -163 3 -210 16 -46 83
-153 95 -153 5 0 16 -3 25 -6 22 -8 21 19 -1 37 -49 41 -69 180 -38 257 9 20
37 58 63 85 l46 47 101 0 c150 0 212 -13 253 -52 46 -44 82 -122 82 -177 0
-52 -30 -119 -71 -160 -16 -16 -29 -34 -29 -40 0 -8 -93 -11 -304 -11 l-304 0
-46 54 c-98 115 -99 224 -4 314 36 34 131 77 136 62 2 -5 -1 -26 -7 -47z
m-6085 -731 c12 -25 7 -73 -6 -52 -4 6 -10 11 -14 11 -24 -3 -36 2 -50 24 -21
33 -12 47 27 43 21 -2 35 -11 43 -26z"/>
</g>
</svg>
