<?xml version="1.0" standalone="no"?>
<!DOCTYPE svg PUBLIC "-//W3C//DTD SVG 20010904//EN"
 "http://www.w3.org/TR/2001/REC-SVG-20010904/DTD/svg10.dtd">
<svg version="1.0" xmlns="http://www.w3.org/2000/svg"
 width="720.000000pt" height="360.000000pt" viewBox="0 0 720.000000 360.000000"
 preserveAspectRatio="xMidYMid meet">

<g transform="translate(0.000000,360.000000) scale(0.100000,-0.100000)"
fill="#000000" stroke="none">
<path d="M3046 2485 c-14 -11 -26 -29 -26 -39 0 -18 -8 -19 -140 -12 -95 5
-140 4 -140 -4 0 -13 -67 -13 -75 0 -8 13 -91 13 -115 0 -14 -7 -46 -4 -115
11 -76 17 -112 20 -171 14 l-74 -7 0 -104 0 -104 83 0 c45 0 123 9 172 19 55
12 94 16 99 10 13 -12 116 -12 116 1 0 6 18 10 40 10 33 0 40 -3 40 -19 0 -13
-8 -21 -22 -23 -17 -2 -24 -11 -26 -30 l-3 -28 -103 0 c-80 0 -106 -3 -116
-15 -7 -8 -24 -15 -39 -15 -25 0 -26 -2 -23 -40 l4 -40 -74 -35 c-183 -84
-326 -104 -457 -65 -68 21 -84 22 -518 18 l-448 -3 -49 -32 c-27 -18 -66 -34
-90 -37 -49 -6 -254 -18 -380 -22 -66 -2 -93 -6 -105 -19 -14 -14 -16 -55 -13
-383 3 -230 8 -372 14 -380 18 -21 89 -15 117 11 31 28 1208 438 1257 437 34
0 53 -13 78 -53 l17 -28 110 3 111 3 15 45 c34 100 103 167 216 209 97 36 122
26 146 -56 22 -77 101 -114 206 -94 80 14 105 42 105 115 0 32 5 58 13 64 14
12 242 33 612 57 132 9 492 33 800 55 308 22 607 42 665 46 58 4 113 11 122
15 9 5 18 24 20 41 3 30 7 33 43 40 22 4 470 12 995 18 696 9 958 15 967 23 6
7 15 24 18 39 5 21 1 33 -17 51 l-24 24 -1154 6 c-635 4 -1391 7 -1679 7 -288
1 -543 3 -567 7 -34 4 -44 10 -44 24 0 13 -7 19 -22 19 -17 0 -19 3 -10 12 9
9 61 5 219 -16 125 -16 240 -26 288 -24 l80 3 0 130 0 130 -109 3 c-78 2 -158
-4 -275 -22 -120 -18 -188 -23 -242 -19 -52 4 -78 2 -83 -6 -4 -6 -29 -11 -57
-11 -44 0 -49 2 -49 23 0 53 -86 80 -134 42z m-9 -231 c31 -20 72 -17 111 6
22 14 50 20 87 20 48 0 55 -2 55 -20 0 -18 -7 -20 -58 -20 -32 0 -63 -5 -68
-10 -7 -7 -67 -10 -160 -8 -145 3 -149 4 -152 25 -3 19 2 22 40 26 59 5 119
-2 145 -19z m-409 -500 c17 -12 22 -25 22 -59 0 -52 -16 -70 -73 -86 -68 -18
-134 -7 -169 29 -32 31 -41 83 -20 104 15 15 32 0 32 -27 0 -13 3 -30 6 -39
11 -29 21 -16 20 26 -1 40 1 43 34 55 50 17 122 16 148 -3z"/>
</g>
</svg>
