<svg preserveAspectRatio="xMidYMid meet" viewBox="12.881201044386424 92.4 393.7167101827676 103.03999999999999" xmlns="http://www.w3.org/2000/svg" version="1.0" style="max-height: 500px" width="393.7167101827676" height="103.03999999999999">

<g stroke="none" fill="#000000" transform="translate(0.000000,280.000000) scale(0.100000,-0.100000)">
<path d="M3754 1709 c-5 -9 -273 -11 -1038 -8 l-1031 4 -57 -27 c-32 -15 -78&#10;-41 -102 -58 -58 -39 -161 -88 -204 -96 -21 -4 -40 -1 -55 9 -21 14 -58 11&#10;-401 -27 -281 -32 -380 -46 -387 -57 -9 -14 -6 -99 12 -304 5 -60 9 -115 9&#10;-121 0 -7 7 -14 15 -18 9 -3 158 63 343 151 l327 156 95 -2 95 -2 13 34 c25&#10;70 114 127 199 127 27 0 37 -7 60 -41 29 -44 56 -59 106 -59 25 0 41 11 84 57&#10;l53 58 177 0 c172 0 179 -1 201 -23 19 -19 30 -22 65 -18 23 3 105 8 182 11&#10;502 21 536 23 556 41 15 14 48 16 231 14 298 -3 268 -7 268 40 0 32 -4 40 -18&#10;40 -19 0 -42 18 -42 32 0 4 68 8 150 8 l150 0 0 29 c0 16 -3 36 -6 45 -7 18&#10;-40 21 -50 5z m-1109 -89 c-4 -6 -75 -10 -181 -10 -109 0 -174 4 -174 10 0 6&#10;67 10 181 10 117 0 178 -3 174 -10z m782 -2 c18 -7 33 -16 33 -20 0 -4 -85 -8&#10;-190 -8 -183 0 -190 1 -190 20 0 19 7 20 157 20 97 0 169 -5 190 -12z m-1609&#10;-174 c5 -35 -24 -54 -78 -54 -42 0 -52 4 -66 25 -8 13 -13 29 -9 35 12 19 25&#10;10 26 -17 1 -21 2 -23 6 -8 9 37 24 46 72 43 38 -2 47 -7 49 -24z"/>
<path d="M1443 95 c0 -27 2 -38 4 -22 2 15 8 27 13 27 5 0 11 -12 13 -27 4&#10;-26 4 -26 6 5 1 22 -4 32 -13 32 -8 0 -17 8 -19 18 -3 9 -5 -5 -4 -33z"/>
<path d="M1942 95 c0 -27 2 -43 5 -35 3 8 13 24 22 35 15 18 15 19 -1 7 -14&#10;-12 -17 -10 -21 15 -2 16 -4 6 -5 -22z"/>
<path d="M1559 119 c-8 -20 4 -62 19 -65 7 -1 8 0 2 3 -16 7 -12 43 5 43 8 0&#10;15 -9 15 -19 0 -11 4 -22 9 -25 5 -4 7 3 4 15 -3 12 -1 24 4 28 7 4 6 11 -3&#10;19 -8 7 -14 8 -14 2 0 -14 -27 -13 -32 2 -3 8 -6 7 -9 -3z"/>
<path d="M1789 118 c-2 -25 3 -53 11 -62 5 -5 6 1 3 14 -3 12 -1 25 4 29 7 4&#10;6 11 -3 19 -11 10 -14 10 -15 0z"/>
<path d="M2340 125 c-1 -5 -1 -21 0 -34 1 -13 -4 -28 -12 -32 -9 -6 -3 -9 17&#10;-9 17 0 25 4 18 8 -6 4 -13 23 -16 42 -2 19 -5 31 -7 25z"/>
<path d="M2400 125 c-1 -5 -1 -21 0 -34 1 -13 -4 -28 -12 -32 -9 -6 -3 -9 17&#10;-9 17 0 25 4 18 8 -6 4 -13 23 -16 42 -2 19 -5 31 -7 25z"/>
<path d="M2452 105 c-22 -28 -23 -30 -5 -34 10 -2 21 -8 24 -13 10 -15 16 14&#10;10 47 l-6 29 -23 -29z m14 -22 c-10 -10 -19 5 -10 18 6 11 8 11 12 0 2 -7 1&#10;-15 -2 -18z"/>
<path d="M2510 106 c-15 -28 -8 -56 14 -56 8 0 19 7 24 16 8 15 10 15 15 0 7&#10;-17 37 -22 37 -6 0 6 11 10 25 10 14 0 25 -6 25 -12 0 -10 2 -10 8 0 5 7 6 27&#10;4 44 l-5 32 -22 -27 -23 -26 -6 25 c-8 29 -31 31 -46 4 -6 -11 -16 -17 -25&#10;-13 -12 4 -13 9 -4 19 6 8 7 14 2 14 -5 0 -15 -11 -23 -24z m85 -16 c0 -13 -5&#10;-25 -11 -27 -14 -5 -25 22 -17 42 8 23 28 12 28 -15z m51 -7 c-10 -10 -19 5&#10;-10 18 6 11 8 11 12 0 2 -7 1 -15 -2 -18z m-114 -8 c0 -5 -5 -11 -11 -13 -6&#10;-2 -11 4 -11 13 0 9 5 15 11 13 6 -2 11 -8 11 -13z"/>
<path d="M2697 123 c22 -4 22 -6 8 -33 -22 -42 -17 -51 5 -10 25 46 25 50 -7&#10;49 -24 -2 -25 -2 -6 -6z"/>
<path d="M2745 120 c-4 -6 1 -7 11 -3 13 5 16 3 11 -10 -3 -9 -2 -19 4 -22 14&#10;-9 -1 -27 -18 -21 -8 3 -11 1 -8 -4 8 -13 35 -13 35 0 0 6 11 10 25 10 14 0&#10;25 -6 25 -12 0 -10 2 -10 8 0 5 7 6 27 4 44 l-5 32 -23 -27 c-29 -33 -34 -34&#10;-34 -2 0 25 -23 35 -35 15z m81 -37 c-10 -10 -19 5 -10 18 6 11 8 11 12 0 2&#10;-7 1 -15 -2 -18z"/>
<path d="M2865 120 c-3 -5 0 -7 8 -4 24 9 28 -12 7 -31 -27 -25 -25 -35 8 -34&#10;21 0 23 2 9 7 -15 7 -16 10 -3 27 7 10 12 25 9 32 -6 15 -29 17 -38 3z"/>
<path d="M1390 93 c0 -10 4 -14 8 -8 4 6 11 13 16 18 5 4 2 7 -7 7 -10 0 -17&#10;-8 -17 -17z"/>
<path d="M1501 83 c-1 -27 3 -33 19 -33 16 0 20 6 19 33 -2 30 -2 30 -6 5 -6&#10;-36 -20 -36 -26 0 -4 25 -4 25 -6 -5z"/>
<path d="M1647 104 c-13 -13 -7 -24 14 -24 11 0 19 5 17 12 -5 14 -22 21 -31&#10;12z"/>
<path d="M1701 78 c2 -28 2 -29 6 -8 3 14 10 28 17 32 7 5 5 8 -6 8 -14 0 -18&#10;-8 -17 -32z"/>
<path d="M1740 93 c0 -10 4 -14 8 -8 4 6 11 13 16 18 5 4 2 7 -7 7 -10 0 -17&#10;-8 -17 -17z"/>
<path d="M1834 95 c-8 -21 2 -45 20 -45 7 0 16 7 20 15 8 21 -3 45 -20 45 -8&#10;0 -17 -7 -20 -15z m31 -15 c0 -7 -6 -15 -12 -17 -8 -3 -13 4 -13 17 0 13 5 20&#10;13 18 6 -3 12 -11 12 -18z"/>
<path d="M1894 95 c-8 -20 2 -45 18 -44 10 0 10 2 1 6 -7 2 -13 13 -13 23 0&#10;10 6 21 13 23 9 4 9 6 -1 6 -7 1 -15 -6 -18 -14z"/>
<path d="M2034 95 c-8 -20 2 -45 18 -44 10 0 10 2 1 6 -7 2 -13 13 -13 23 0&#10;10 6 21 13 23 9 4 9 6 -1 6 -7 1 -15 -6 -18 -14z"/>
<path d="M2087 103 c-11 -10 -8 -41 4 -49 16 -9 41 20 33 39 -6 17 -25 22 -37&#10;10z m28 -23 c0 -7 -6 -15 -12 -17 -8 -3 -13 4 -13 17 0 13 5 20 13 18 6 -3 12&#10;-11 12 -18z"/>
<path d="M2141 77 c2 -31 2 -31 6 -4 2 15 8 27 13 27 5 0 11 -12 13 -27 l4&#10;-28 2 28 c0 15 5 27 10 27 5 0 12 -12 14 -27 4 -27 4 -27 6 4 1 29 -1 31 -34&#10;31 -33 0 -35 -2 -34 -31z"/>
<path d="M1402 65 c-11 -12 -10 -15 3 -15 8 0 15 7 15 15 0 18 -2 18 -18 0z"/>
<path d="M1752 65 c-11 -12 -10 -15 3 -15 8 0 15 7 15 15 0 18 -2 18 -18 0z"/>
<path d="M1960 71 c0 -5 5 -13 10 -16 6 -3 10 -2 10 4 0 5 -4 13 -10 16 -5 3&#10;-10 2 -10 -4z"/>
<path d="M1648 58 c5 -5 16 -8 23 -6 8 3 3 7 -10 11 -17 4 -21 3 -13 -5z"/>
</g>
</svg>